<mxfile host="app.diagrams.net" modified="2023-05-19T13:42:16.443Z" agent="Mozilla/5.0 (X11; Linux x86_64) AppleWebKit/537.36 (KHTML, like Gecko) Chrome/111.0.0.0 Safari/537.36" etag="m2XbrRT5xPUQl4RSlRq7" version="21.3.2" type="github">
  <diagram id="C5RBs43oDa-KdzZeNtuy" name="Page-1">
    <mxGraphModel dx="2261" dy="879" grid="1" gridSize="10" guides="1" tooltips="1" connect="1" arrows="1" fold="1" page="1" pageScale="1" pageWidth="827" pageHeight="1169" math="0" shadow="0">
      <root>
        <mxCell id="WIyWlLk6GJQsqaUBKTNV-0" />
        <mxCell id="WIyWlLk6GJQsqaUBKTNV-1" parent="WIyWlLk6GJQsqaUBKTNV-0" />
        <mxCell id="5m6G8Ji4z2jv-XGbMc68-5" style="edgeStyle=orthogonalEdgeStyle;rounded=0;orthogonalLoop=1;jettySize=auto;html=1;entryX=0.5;entryY=0;entryDx=0;entryDy=0;entryPerimeter=0;exitX=0.5;exitY=1;exitDx=0;exitDy=0;" edge="1" parent="WIyWlLk6GJQsqaUBKTNV-1" source="WIyWlLk6GJQsqaUBKTNV-7" target="5m6G8Ji4z2jv-XGbMc68-0">
          <mxGeometry relative="1" as="geometry">
            <mxPoint x="470" y="320" as="sourcePoint" />
          </mxGeometry>
        </mxCell>
        <mxCell id="5m6G8Ji4z2jv-XGbMc68-21" style="edgeStyle=orthogonalEdgeStyle;rounded=0;orthogonalLoop=1;jettySize=auto;html=1;exitX=0.25;exitY=1;exitDx=0;exitDy=0;entryX=1;entryY=1;entryDx=0;entryDy=0;entryPerimeter=0;" edge="1" parent="WIyWlLk6GJQsqaUBKTNV-1" source="WIyWlLk6GJQsqaUBKTNV-7" target="5m6G8Ji4z2jv-XGbMc68-8">
          <mxGeometry relative="1" as="geometry">
            <Array as="points">
              <mxPoint x="210" y="150" />
              <mxPoint x="210" y="350" />
              <mxPoint x="-120" y="350" />
            </Array>
          </mxGeometry>
        </mxCell>
        <mxCell id="WIyWlLk6GJQsqaUBKTNV-7" value="API SQUAD" style="rounded=1;whiteSpace=wrap;html=1;fontSize=12;glass=0;strokeWidth=1;shadow=0;" parent="WIyWlLk6GJQsqaUBKTNV-1" vertex="1">
          <mxGeometry x="980" y="110" width="120" height="40" as="geometry" />
        </mxCell>
        <mxCell id="5m6G8Ji4z2jv-XGbMc68-0" value="" style="shape=cylinder3;whiteSpace=wrap;html=1;boundedLbl=1;backgroundOutline=1;size=15;rotation=0;" vertex="1" parent="WIyWlLk6GJQsqaUBKTNV-1">
          <mxGeometry x="384" y="330" width="60" height="80" as="geometry" />
        </mxCell>
        <mxCell id="5m6G8Ji4z2jv-XGbMc68-6" style="edgeStyle=orthogonalEdgeStyle;rounded=0;orthogonalLoop=1;jettySize=auto;html=1;" edge="1" parent="WIyWlLk6GJQsqaUBKTNV-1" source="5m6G8Ji4z2jv-XGbMc68-1">
          <mxGeometry relative="1" as="geometry">
            <mxPoint x="-160" y="250" as="targetPoint" />
          </mxGeometry>
        </mxCell>
        <mxCell id="5m6G8Ji4z2jv-XGbMc68-1" value="CLIENT GOLDEN" style="rounded=1;whiteSpace=wrap;html=1;fontSize=12;glass=0;strokeWidth=1;shadow=0;" vertex="1" parent="WIyWlLk6GJQsqaUBKTNV-1">
          <mxGeometry x="-220" y="110" width="120" height="40" as="geometry" />
        </mxCell>
        <mxCell id="5m6G8Ji4z2jv-XGbMc68-2" value="BASE DE DADOS SQUAD" style="rounded=1;whiteSpace=wrap;html=1;" vertex="1" parent="WIyWlLk6GJQsqaUBKTNV-1">
          <mxGeometry x="354" y="420" width="120" height="30" as="geometry" />
        </mxCell>
        <mxCell id="5m6G8Ji4z2jv-XGbMc68-16" style="edgeStyle=orthogonalEdgeStyle;rounded=0;orthogonalLoop=1;jettySize=auto;html=1;entryX=0;entryY=0.5;entryDx=0;entryDy=0;entryPerimeter=0;" edge="1" parent="WIyWlLk6GJQsqaUBKTNV-1" source="5m6G8Ji4z2jv-XGbMc68-8" target="5m6G8Ji4z2jv-XGbMc68-10">
          <mxGeometry relative="1" as="geometry">
            <mxPoint x="-150" y="370" as="sourcePoint" />
            <Array as="points">
              <mxPoint x="-150" y="410" />
            </Array>
          </mxGeometry>
        </mxCell>
        <mxCell id="5m6G8Ji4z2jv-XGbMc68-19" style="edgeStyle=orthogonalEdgeStyle;rounded=0;orthogonalLoop=1;jettySize=auto;html=1;entryX=0;entryY=0.5;entryDx=0;entryDy=0;" edge="1" parent="WIyWlLk6GJQsqaUBKTNV-1" source="5m6G8Ji4z2jv-XGbMc68-8" target="WIyWlLk6GJQsqaUBKTNV-7">
          <mxGeometry relative="1" as="geometry">
            <Array as="points">
              <mxPoint x="170" y="290" />
              <mxPoint x="170" y="130" />
            </Array>
          </mxGeometry>
        </mxCell>
        <mxCell id="5m6G8Ji4z2jv-XGbMc68-8" value="&lt;br&gt;&lt;br&gt;FORM DE CADASTRO" style="shape=note;whiteSpace=wrap;html=1;backgroundOutline=1;darkOpacity=0.05;" vertex="1" parent="WIyWlLk6GJQsqaUBKTNV-1">
          <mxGeometry x="-200" y="250" width="80" height="80" as="geometry" />
        </mxCell>
        <mxCell id="5m6G8Ji4z2jv-XGbMc68-10" value="" style="shape=cylinder3;whiteSpace=wrap;html=1;boundedLbl=1;backgroundOutline=1;size=15;" vertex="1" parent="WIyWlLk6GJQsqaUBKTNV-1">
          <mxGeometry x="240" y="370" width="60" height="80" as="geometry" />
        </mxCell>
        <mxCell id="5m6G8Ji4z2jv-XGbMc68-12" value="BASE DE DADOS KEYCLOACK" style="rounded=1;whiteSpace=wrap;html=1;" vertex="1" parent="WIyWlLk6GJQsqaUBKTNV-1">
          <mxGeometry x="210" y="470" width="120" height="30" as="geometry" />
        </mxCell>
        <mxCell id="5m6G8Ji4z2jv-XGbMc68-14" value="CRIACAO DE NOVO USARIO" style="text;html=1;strokeColor=none;fillColor=none;align=center;verticalAlign=middle;whiteSpace=wrap;rounded=0;" vertex="1" parent="WIyWlLk6GJQsqaUBKTNV-1">
          <mxGeometry x="-150" y="190" width="100" height="30" as="geometry" />
        </mxCell>
        <mxCell id="5m6G8Ji4z2jv-XGbMc68-17" value="" style="endArrow=classic;html=1;rounded=0;exitX=0;exitY=1;exitDx=0;exitDy=-15;exitPerimeter=0;entryX=0.275;entryY=1.025;entryDx=0;entryDy=0;entryPerimeter=0;" edge="1" parent="WIyWlLk6GJQsqaUBKTNV-1" source="5m6G8Ji4z2jv-XGbMc68-10" target="5m6G8Ji4z2jv-XGbMc68-8">
          <mxGeometry width="50" height="50" relative="1" as="geometry">
            <mxPoint x="390" y="560" as="sourcePoint" />
            <mxPoint x="-180" y="373.03999999999996" as="targetPoint" />
            <Array as="points">
              <mxPoint x="-180" y="435" />
            </Array>
          </mxGeometry>
        </mxCell>
        <mxCell id="5m6G8Ji4z2jv-XGbMc68-18" value="Retorna ID do usuario criado no keyclock" style="text;html=1;strokeColor=none;fillColor=none;align=center;verticalAlign=middle;whiteSpace=wrap;rounded=0;" vertex="1" parent="WIyWlLk6GJQsqaUBKTNV-1">
          <mxGeometry x="-30" y="440" width="120" height="30" as="geometry" />
        </mxCell>
        <mxCell id="5m6G8Ji4z2jv-XGbMc68-20" value="Chamada do End-Point para criacao do usuario na base squad" style="text;html=1;strokeColor=none;fillColor=none;align=center;verticalAlign=middle;whiteSpace=wrap;rounded=0;" vertex="1" parent="WIyWlLk6GJQsqaUBKTNV-1">
          <mxGeometry x="-80" y="300" width="220" height="30" as="geometry" />
        </mxCell>
        <mxCell id="5m6G8Ji4z2jv-XGbMc68-22" value="Retorno Status&lt;br&gt;&amp;nbsp;201 para criado&lt;br&gt;401 para nao criado" style="text;html=1;strokeColor=none;fillColor=none;align=center;verticalAlign=middle;whiteSpace=wrap;rounded=0;" vertex="1" parent="WIyWlLk6GJQsqaUBKTNV-1">
          <mxGeometry x="750" y="160" width="170" height="50" as="geometry" />
        </mxCell>
      </root>
    </mxGraphModel>
  </diagram>
</mxfile>
